solid c
facet normal -0.9978589232386038 -0.065403129230141 0.0
  outer loop
    vertex -35.406845501050434 10.00000000000003 2.200000000000003
    vertex -35.338404392040914 8.955790462239616 1.8000000000000023
    vertex -35.338404392040914 8.955790462239616 2.200000000000003
  endloop
endfacet
facet normal -0.9978589232386038 -0.065403129230141 0.0
  outer loop
    vertex -35.338404392040914 8.955790462239616 1.8000000000000023
    vertex -35.406845501050434 10.00000000000003 2.200000000000003
    vertex -35.406845501050434 10.00000000000003 1.8000000000000023
  endloop
endfacet
facet normal -0.9469301294951062 -0.32143946530315987 -1.1765918994805948e-29
  outer loop
    vertex -35.13425211136298 7.929447639179867 2.200000000000003
    vertex -34.79788176114073 6.938532541079314 1.8000000000000023
    vertex -34.79788176114073 6.938532541079314 2.200000000000003
  endloop
endfacet
facet normal -0.9469301294951062 -0.32143946530315987 -1.1765918994805948e-29
  outer loop
    vertex -34.79788176114073 6.938532541079314 1.8000000000000023
    vertex -35.13425211136298 7.929447639179867 2.200000000000003
    vertex -35.13425211136298 7.929447639179867 1.8000000000000023
  endloop
endfacet
facet normal -0.7518398074789743 0.6593458151000725 0.0
  outer loop
    vertex -33.06369975054281 15.6568542494924 2.200000000000003
    vertex -33.75367222338031 14.870091432069788 1.8000000000000023
    vertex -33.75367222338031 14.870091432069788 2.200000000000003
  endloop
endfacet
facet normal -0.7518398074789743 0.6593458151000725 0.0
  outer loop
    vertex -33.75367222338031 14.870091432069788 1.8000000000000023
    vertex -33.06369975054281 15.6568542494924 2.200000000000003
    vertex -33.06369975054281 15.6568542494924 1.8000000000000023
  endloop
endfacet
facet normal -0.5555702330196032 -0.8314696123025446 0.0
  outer loop
    vertex -31.406845501050448 3.071796769724523 2.200000000000003
    vertex -32.27693693312021 3.6531732776701507 1.8000000000000023
    vertex -31.406845501050448 3.071796769724523 1.8000000000000023
  endloop
endfacet
facet normal -0.5555702330196032 -0.8314696123025446 0.0
  outer loop
    vertex -32.27693693312021 3.6531732776701507 1.8000000000000023
    vertex -31.406845501050448 3.071796769724523 2.200000000000003
    vertex -32.27693693312021 3.6531732776701507 2.200000000000003
  endloop
endfacet
facet normal -0.98078528040323 0.19509032201613083 -2.132227096029188e-17
  outer loop
    vertex -35.134252111362976 12.070552360820193 2.200000000000003
    vertex -35.338404392040914 11.04420953776044 1.8000000000000023
    vertex -35.338404392040914 11.04420953776044 2.200000000000003
  endloop
endfacet
facet normal -0.98078528040323 0.19509032201613083 -2.132227096029188e-17
  outer loop
    vertex -35.338404392040914 11.04420953776044 1.8000000000000023
    vertex -35.134252111362976 12.070552360820193 2.200000000000003
    vertex -35.134252111362976 12.070552360820193 1.8000000000000023
  endloop
endfacet
facet normal -0.06540312923014655 -0.9978589232386034 0.0
  outer loop
    vertex -27.406845501050455 2.000000000000023 2.200000000000003
    vertex -28.451055038810868 2.068441109009543 1.8000000000000023
    vertex -27.406845501050455 2.000000000000023 1.8000000000000023
  endloop
endfacet
facet normal -0.06540312923014655 -0.9978589232386034 0.0
  outer loop
    vertex -28.451055038810868 2.068441109009543 1.8000000000000023
    vertex -27.406845501050455 2.000000000000023 2.200000000000003
    vertex -28.451055038810868 2.068441109009543 2.200000000000003
  endloop
endfacet
facet normal -0.6593458151000716 -0.7518398074789749 -8.192589092257662e-30
  outer loop
    vertex -32.27693693312021 3.6531732776701507 2.200000000000003
    vertex -33.063699750542824 4.343145750507654 1.8000000000000023
    vertex -32.27693693312021 3.6531732776701507 1.8000000000000023
  endloop
endfacet
facet normal -0.6593458151000716 -0.7518398074789749 -8.192589092257662e-30
  outer loop
    vertex -33.063699750542824 4.343145750507654 1.8000000000000023
    vertex -32.27693693312021 3.6531732776701507 2.200000000000003
    vertex -33.063699750542824 4.343145750507654 2.200000000000003
  endloop
endfacet
facet normal -0.4422886902190028 -0.8968727415326877 5.49558276724207e-30
  outer loop
    vertex -30.468312959971165 2.6089637399097363 2.200000000000003
    vertex -31.406845501050448 3.071796769724523 1.8000000000000023
    vertex -30.468312959971165 2.6089637399097363 1.8000000000000023
  endloop
endfacet
facet normal -0.4422886902190028 -0.8968727415326877 5.49558276724207e-30
  outer loop
    vertex -31.406845501050448 3.071796769724523 1.8000000000000023
    vertex -30.468312959971165 2.6089637399097363 2.200000000000003
    vertex -31.406845501050448 3.071796769724523 2.200000000000003
  endloop
endfacet
facet normal -0.7518398074789788 -0.6593458151000675 -1.1390004709351499e-29
  outer loop
    vertex -33.75367222338032 5.129908567930269 2.200000000000003
    vertex -33.063699750542824 4.343145750507654 1.8000000000000023
    vertex -33.063699750542824 4.343145750507654 2.200000000000003
  endloop
endfacet
facet normal -0.7518398074789788 -0.6593458151000675 -1.1390004709351499e-29
  outer loop
    vertex -33.063699750542824 4.343145750507654 1.8000000000000023
    vertex -33.75367222338032 5.129908567930269 2.200000000000003
    vertex -33.75367222338032 5.129908567930269 1.8000000000000023
  endloop
endfacet
facet normal -0.9807852804032309 -0.1950903220161261 -1.2186580404485998e-29
  outer loop
    vertex -35.338404392040914 8.955790462239616 2.200000000000003
    vertex -35.13425211136298 7.929447639179867 1.8000000000000023
    vertex -35.13425211136298 7.929447639179867 2.200000000000003
  endloop
endfacet
facet normal -0.9807852804032309 -0.1950903220161261 -1.2186580404485998e-29
  outer loop
    vertex -35.13425211136298 7.929447639179867 1.8000000000000023
    vertex -35.338404392040914 8.955790462239616 2.200000000000003
    vertex -35.338404392040914 8.955790462239616 1.8000000000000023
  endloop
endfacet
facet normal -0.8314696123025462 0.5555702330196011 3.451571638722407e-30
  outer loop
    vertex -33.75367222338031 14.870091432069788 2.200000000000003
    vertex -34.33504873132594 14.000000000000023 1.8000000000000023
    vertex -34.33504873132594 14.000000000000023 2.200000000000003
  endloop
endfacet
facet normal -0.8314696123025462 0.5555702330196011 3.451571638722407e-30
  outer loop
    vertex -34.33504873132594 14.000000000000023 1.8000000000000023
    vertex -33.75367222338031 14.870091432069788 2.200000000000003
    vertex -33.75367222338031 14.870091432069788 1.8000000000000023
  endloop
endfacet
facet normal -0.9978589232386038 0.06540312923014116 0.0
  outer loop
    vertex -35.338404392040914 11.04420953776044 2.200000000000003
    vertex -35.406845501050434 10.00000000000003 1.8000000000000023
    vertex -35.406845501050434 10.00000000000003 2.200000000000003
  endloop
endfacet
facet normal -0.9978589232386038 0.06540312923014116 0.0
  outer loop
    vertex -35.406845501050434 10.00000000000003 1.8000000000000023
    vertex -35.338404392040914 11.04420953776044 2.200000000000003
    vertex -35.338404392040914 11.04420953776044 1.8000000000000023
  endloop
endfacet
facet normal 0.32143946530315826 -0.9469301294951068 -3.9939913122283244e-30
  outer loop
    vertex -24.34537804212974 2.608963739909718 2.200000000000003
    vertex -25.336293140230293 2.27259338968747 1.8000000000000023
    vertex -24.34537804212974 2.608963739909718 1.8000000000000023
  endloop
endfacet
facet normal 0.32143946530315826 -0.9469301294951068 -3.9939913122283244e-30
  outer loop
    vertex -25.336293140230293 2.27259338968747 1.8000000000000023
    vertex -24.34537804212974 2.608963739909718 2.200000000000003
    vertex -25.336293140230293 2.27259338968747 2.200000000000003
  endloop
endfacet
facet normal 0.7518398074789743 -0.6593458151000725 0.0
  outer loop
    vertex -21.060018778720572 5.129908567930232 1.8000000000000023
    vertex -21.749991251558075 4.343145750507621 2.200000000000003
    vertex -21.749991251558075 4.343145750507621 1.8000000000000023
  endloop
endfacet
facet normal 0.7518398074789743 -0.6593458151000725 0.0
  outer loop
    vertex -21.749991251558075 4.343145750507621 2.200000000000003
    vertex -21.060018778720572 5.129908567930232 1.8000000000000023
    vertex -21.060018778720572 5.129908567930232 2.200000000000003
  endloop
endfacet
facet normal 0.5555702330196034 0.8314696123025447 0.0
  outer loop
    vertex -23.406845501050437 16.92820323027553 2.200000000000003
    vertex -22.536754068980667 16.346826722329897 1.8000000000000023
    vertex -23.406845501050437 16.92820323027553 1.8000000000000023
  endloop
endfacet
facet normal 0.5555702330196034 0.8314696123025447 0.0
  outer loop
    vertex -22.536754068980667 16.346826722329897 1.8000000000000023
    vertex -23.406845501050437 16.92820323027553 2.200000000000003
    vertex -22.536754068980667 16.346826722329897 2.200000000000003
  endloop
endfacet
facet normal 0.8314696123025462 0.5555702330196011 -3.451571638722407e-30
  outer loop
    vertex -21.06001877872055 14.870091432069788 1.8000000000000023
    vertex -20.478642270774927 14.00000000000002 2.200000000000003
    vertex -20.478642270774927 14.00000000000002 1.8000000000000023
  endloop
endfacet
facet normal 0.8314696123025462 0.5555702330196011 -3.451571638722407e-30
  outer loop
    vertex -20.478642270774927 14.00000000000002 2.200000000000003
    vertex -21.06001877872055 14.870091432069788 1.8000000000000023
    vertex -21.06001877872055 14.870091432069788 2.200000000000003
  endloop
endfacet
facet normal -0.6593458151000695 0.7518398074789769 -8.192589092257635e-30
  outer loop
    vertex -33.06369975054281 15.6568542494924 2.200000000000003
    vertex -32.2769369331202 16.346826722329897 1.8000000000000023
    vertex -33.06369975054281 15.6568542494924 1.8000000000000023
  endloop
endfacet
facet normal -0.6593458151000695 0.7518398074789769 -8.192589092257635e-30
  outer loop
    vertex -32.2769369331202 16.346826722329897 1.8000000000000023
    vertex -33.06369975054281 15.6568542494924 2.200000000000003
    vertex -32.2769369331202 16.346826722329897 2.200000000000003
  endloop
endfacet
facet normal 0.9469301294951062 0.3214394653031598 1.996995656114172e-30
  outer loop
    vertex -20.01580924096014 13.06146745892074 1.8000000000000023
    vertex -19.67943889073789 12.070552360820187 2.200000000000003
    vertex -19.67943889073789 12.070552360820187 1.8000000000000023
  endloop
endfacet
facet normal 0.9469301294951062 0.3214394653031598 1.996995656114172e-30
  outer loop
    vertex -19.67943889073789 12.070552360820187 2.200000000000003
    vertex -20.01580924096014 13.06146745892074 1.8000000000000023
    vertex -20.01580924096014 13.06146745892074 2.200000000000003
  endloop
endfacet
facet normal 0.19509032201612506 -0.9807852804032311 2.1322270960292458e-17
  outer loop
    vertex -25.336293140230293 2.27259338968747 2.200000000000003
    vertex -26.362635963290046 2.068441109009536 1.8000000000000023
    vertex -25.336293140230293 2.27259338968747 1.8000000000000023
  endloop
endfacet
facet normal 0.19509032201612506 -0.9807852804032311 2.1322270960292458e-17
  outer loop
    vertex -26.362635963290046 2.068441109009536 1.8000000000000023
    vertex -25.336293140230293 2.27259338968747 2.200000000000003
    vertex -26.362635963290046 2.068441109009536 2.200000000000003
  endloop
endfacet
facet normal 0.98078528040323 0.19509032201613077 0.0
  outer loop
    vertex -19.67943889073789 12.070552360820187 1.8000000000000023
    vertex -19.475286610059953 11.044209537760434 2.200000000000003
    vertex -19.475286610059953 11.044209537760434 1.8000000000000023
  endloop
endfacet
facet normal 0.98078528040323 0.19509032201613077 0.0
  outer loop
    vertex -19.475286610059953 11.044209537760434 2.200000000000003
    vertex -19.67943889073789 12.070552360820187 1.8000000000000023
    vertex -19.67943889073789 12.070552360820187 2.200000000000003
  endloop
endfacet
facet normal 0.44228869021899836 -0.8968727415326898 0.0
  outer loop
    vertex -23.40684550105046 3.071796769724499 2.200000000000003
    vertex -24.34537804212974 2.608963739909718 1.8000000000000023
    vertex -23.40684550105046 3.071796769724499 1.8000000000000023
  endloop
endfacet
facet normal 0.44228869021899836 -0.8968727415326898 0.0
  outer loop
    vertex -24.34537804212974 2.608963739909718 1.8000000000000023
    vertex -23.40684550105046 3.071796769724499 2.200000000000003
    vertex -24.34537804212974 2.608963739909718 2.200000000000003
  endloop
endfacet
facet normal 0.98078528040323 -0.19509032201613136 0.0
  outer loop
    vertex -19.475286610059957 8.955790462239571 1.8000000000000023
    vertex -19.679438890737895 7.9294476391798225 2.200000000000003
    vertex -19.679438890737895 7.9294476391798225 1.8000000000000023
  endloop
endfacet
facet normal 0.98078528040323 -0.19509032201613136 0.0
  outer loop
    vertex -19.679438890737895 7.9294476391798225 2.200000000000003
    vertex -19.475286610059957 8.955790462239571 1.8000000000000023
    vertex -19.475286610059957 8.955790462239571 2.200000000000003
  endloop
endfacet
facet normal 0.831469612302544 -0.5555702330196042 4.5437467593340695e-17
  outer loop
    vertex -20.478642270774944 5.999999999999995 1.8000000000000023
    vertex -21.060018778720572 5.129908567930232 2.200000000000003
    vertex -21.060018778720572 5.129908567930232 1.8000000000000023
  endloop
endfacet
facet normal 0.831469612302544 -0.5555702330196042 4.5437467593340695e-17
  outer loop
    vertex -21.060018778720572 5.129908567930232 2.200000000000003
    vertex -20.478642270774944 5.999999999999995 1.8000000000000023
    vertex -20.478642270774944 5.999999999999995 2.200000000000003
  endloop
endfacet
facet normal 0.9978589232386036 -0.06540312923014407 -1.239872604468688e-29
  outer loop
    vertex -19.406845501050437 10.000000000000021 1.8000000000000023
    vertex -19.475286610059957 8.955790462239571 2.200000000000003
    vertex -19.475286610059957 8.955790462239571 1.8000000000000023
  endloop
endfacet
facet normal 0.9978589232386036 -0.06540312923014407 -1.239872604468688e-29
  outer loop
    vertex -19.475286610059957 8.955790462239571 2.200000000000003
    vertex -19.406845501050437 10.000000000000021 1.8000000000000023
    vertex -19.406845501050437 10.000000000000021 2.200000000000003
  endloop
endfacet
facet normal -0.32143946530315903 0.9469301294951066 0.0
  outer loop
    vertex -30.468312959971154 17.391036260090313 2.200000000000003
    vertex -29.4773978618706 17.727406610312563 1.8000000000000023
    vertex -30.468312959971154 17.391036260090313 1.8000000000000023
  endloop
endfacet
facet normal -0.32143946530315903 0.9469301294951066 0.0
  outer loop
    vertex -29.4773978618706 17.727406610312563 1.8000000000000023
    vertex -30.468312959971154 17.391036260090313 2.200000000000003
    vertex -29.4773978618706 17.727406610312563 2.200000000000003
  endloop
endfacet
facet normal 0.44228869021900163 0.8968727415326881 2.7477913836210278e-30
  outer loop
    vertex -24.345378042129717 17.391036260090313 2.200000000000003
    vertex -23.406845501050437 16.92820323027553 1.8000000000000023
    vertex -24.345378042129717 17.391036260090313 1.8000000000000023
  endloop
endfacet
facet normal 0.44228869021900163 0.8968727415326881 2.7477913836210278e-30
  outer loop
    vertex -23.406845501050437 16.92820323027553 1.8000000000000023
    vertex -24.345378042129717 17.391036260090313 2.200000000000003
    vertex -23.406845501050437 16.92820323027553 2.200000000000003
  endloop
endfacet
facet normal -0.44228869021900263 0.8968727415326877 0.0
  outer loop
    vertex -31.406845501050434 16.92820323027553 2.200000000000003
    vertex -30.468312959971154 17.391036260090313 1.8000000000000023
    vertex -31.406845501050434 16.92820323027553 1.8000000000000023
  endloop
endfacet
facet normal -0.44228869021900263 0.8968727415326877 0.0
  outer loop
    vertex -30.468312959971154 17.391036260090313 1.8000000000000023
    vertex -31.406845501050434 16.92820323027553 2.200000000000003
    vertex -30.468312959971154 17.391036260090313 2.200000000000003
  endloop
endfacet
facet normal 0.3214394653031598 0.9469301294951062 -9.768923338691775e-30
  outer loop
    vertex -25.336293140230268 17.727406610312563 2.200000000000003
    vertex -24.345378042129717 17.391036260090313 1.8000000000000023
    vertex -25.336293140230268 17.727406610312563 1.8000000000000023
  endloop
endfacet
facet normal 0.3214394653031598 0.9469301294951062 -9.768923338691775e-30
  outer loop
    vertex -24.345378042129717 17.391036260090313 1.8000000000000023
    vertex -25.336293140230268 17.727406610312563 2.200000000000003
    vertex -24.345378042129717 17.391036260090313 2.200000000000003
  endloop
endfacet
facet normal 0.8968727415326881 0.44228869021900163 2.7477913836210278e-30
  outer loop
    vertex -20.478642270774927 14.00000000000002 1.8000000000000023
    vertex -20.01580924096014 13.06146745892074 2.200000000000003
    vertex -20.01580924096014 13.06146745892074 1.8000000000000023
  endloop
endfacet
facet normal 0.8968727415326881 0.44228869021900163 2.7477913836210278e-30
  outer loop
    vertex -20.01580924096014 13.06146745892074 2.200000000000003
    vertex -20.478642270774927 14.00000000000002 1.8000000000000023
    vertex -20.478642270774927 14.00000000000002 2.200000000000003
  endloop
endfacet
facet normal -0.19509032201612897 -0.9807852804032304 2.1322270960292886e-17
  outer loop
    vertex -28.451055038810868 2.068441109009543 2.200000000000003
    vertex -29.47739786187062 2.2725933896874815 1.8000000000000023
    vertex -28.451055038810868 2.068441109009543 1.8000000000000023
  endloop
endfacet
facet normal -0.19509032201612897 -0.9807852804032304 2.1322270960292886e-17
  outer loop
    vertex -29.47739786187062 2.2725933896874815 1.8000000000000023
    vertex -28.451055038810868 2.068441109009543 2.200000000000003
    vertex -29.47739786187062 2.2725933896874815 2.200000000000003
  endloop
endfacet
facet normal 0.8968727415326855 -0.442288690219007 0.0
  outer loop
    vertex -20.015809240960152 6.9385325410792715 1.8000000000000023
    vertex -20.478642270774944 5.999999999999995 2.200000000000003
    vertex -20.478642270774944 5.999999999999995 1.8000000000000023
  endloop
endfacet
facet normal 0.8968727415326855 -0.442288690219007 0.0
  outer loop
    vertex -20.478642270774944 5.999999999999995 2.200000000000003
    vertex -20.015809240960152 6.9385325410792715 1.8000000000000023
    vertex -20.015809240960152 6.9385325410792715 2.200000000000003
  endloop
endfacet
facet normal 0.6593458151000661 -0.75183980747898 0.0
  outer loop
    vertex -21.749991251558075 4.343145750507621 2.200000000000003
    vertex -22.53675406898069 3.653173277670124 1.8000000000000023
    vertex -21.749991251558075 4.343145750507621 1.8000000000000023
  endloop
endfacet
facet normal 0.6593458151000661 -0.75183980747898 0.0
  outer loop
    vertex -22.53675406898069 3.653173277670124 1.8000000000000023
    vertex -21.749991251558075 4.343145750507621 2.200000000000003
    vertex -22.53675406898069 3.653173277670124 2.200000000000003
  endloop
endfacet
facet normal 0.9469301294951045 -0.32143946530316553 0.0
  outer loop
    vertex -19.679438890737895 7.9294476391798225 1.8000000000000023
    vertex -20.015809240960152 6.9385325410792715 2.200000000000003
    vertex -20.015809240960152 6.9385325410792715 1.8000000000000023
  endloop
endfacet
facet normal 0.9469301294951045 -0.32143946530316553 0.0
  outer loop
    vertex -20.015809240960152 6.9385325410792715 2.200000000000003
    vertex -19.679438890737895 7.9294476391798225 1.8000000000000023
    vertex -19.679438890737895 7.9294476391798225 2.200000000000003
  endloop
endfacet
facet normal 0.5555702330196001 -0.8314696123025468 -3.4515716387224005e-30
  outer loop
    vertex -22.53675406898069 3.653173277670124 2.200000000000003
    vertex -23.40684550105046 3.071796769724499 1.8000000000000023
    vertex -22.53675406898069 3.653173277670124 1.8000000000000023
  endloop
endfacet
facet normal 0.5555702330196001 -0.8314696123025468 -3.4515716387224005e-30
  outer loop
    vertex -23.40684550105046 3.071796769724499 1.8000000000000023
    vertex -22.53675406898069 3.653173277670124 2.200000000000003
    vertex -23.40684550105046 3.071796769724499 2.200000000000003
  endloop
endfacet
facet normal 0.06540312923013984 -0.9978589232386038 0.0
  outer loop
    vertex -26.362635963290046 2.068441109009536 2.200000000000003
    vertex -27.406845501050455 2.000000000000023 1.8000000000000023
    vertex -26.362635963290046 2.068441109009536 1.8000000000000023
  endloop
endfacet
facet normal 0.06540312923013984 -0.9978589232386038 0.0
  outer loop
    vertex -27.406845501050455 2.000000000000023 1.8000000000000023
    vertex -26.362635963290046 2.068441109009536 2.200000000000003
    vertex -27.406845501050455 2.000000000000023 2.200000000000003
  endloop
endfacet
facet normal 0.6593458151000682 0.751839807478978 -3.603138787410821e-17
  outer loop
    vertex -22.536754068980667 16.346826722329897 2.200000000000003
    vertex -21.749991251558054 15.6568542494924 1.8000000000000023
    vertex -22.536754068980667 16.346826722329897 1.8000000000000023
  endloop
endfacet
facet normal 0.6593458151000682 0.751839807478978 -3.603138787410821e-17
  outer loop
    vertex -21.749991251558054 15.6568542494924 1.8000000000000023
    vertex -22.536754068980667 16.346826722329897 2.200000000000003
    vertex -21.749991251558054 15.6568542494924 2.200000000000003
  endloop
endfacet
facet normal -0.946930129495106 0.32143946530316064 1.1765918994805944e-29
  outer loop
    vertex -34.79788176114073 13.061467458920742 2.200000000000003
    vertex -35.134252111362976 12.070552360820193 1.8000000000000023
    vertex -35.134252111362976 12.070552360820193 2.200000000000003
  endloop
endfacet
facet normal -0.946930129495106 0.32143946530316064 1.1765918994805944e-29
  outer loop
    vertex -35.134252111362976 12.070552360820193 1.8000000000000023
    vertex -34.79788176114073 13.061467458920742 2.200000000000003
    vertex -34.79788176114073 13.061467458920742 1.8000000000000023
  endloop
endfacet
facet normal -0.3214394653031659 -0.9469301294951042 0.0
  outer loop
    vertex -29.47739786187062 2.2725933896874815 2.200000000000003
    vertex -30.468312959971165 2.6089637399097363 1.8000000000000023
    vertex -29.47739786187062 2.2725933896874815 1.8000000000000023
  endloop
endfacet
facet normal -0.3214394653031659 -0.9469301294951042 0.0
  outer loop
    vertex -30.468312959971165 2.6089637399097363 1.8000000000000023
    vertex -29.47739786187062 2.2725933896874815 2.200000000000003
    vertex -30.468312959971165 2.6089637399097363 2.200000000000003
  endloop
endfacet
facet normal 0.9978589232386038 0.065403129230141 4.063277197331173e-31
  outer loop
    vertex -19.475286610059953 11.044209537760434 1.8000000000000023
    vertex -19.406845501050437 10.000000000000021 2.200000000000003
    vertex -19.406845501050437 10.000000000000021 1.8000000000000023
  endloop
endfacet
facet normal 0.9978589232386038 0.065403129230141 4.063277197331173e-31
  outer loop
    vertex -19.406845501050437 10.000000000000021 2.200000000000003
    vertex -19.475286610059953 11.044209537760434 1.8000000000000023
    vertex -19.475286610059953 11.044209537760434 2.200000000000003
  endloop
endfacet
facet normal -0.8314696123025462 -0.5555702330196011 0.0
  outer loop
    vertex -34.33504873132595 6.000000000000034 2.200000000000003
    vertex -33.75367222338032 5.129908567930269 1.8000000000000023
    vertex -33.75367222338032 5.129908567930269 2.200000000000003
  endloop
endfacet
facet normal -0.8314696123025462 -0.5555702330196011 0.0
  outer loop
    vertex -33.75367222338032 5.129908567930269 1.8000000000000023
    vertex -34.33504873132595 6.000000000000034 2.200000000000003
    vertex -34.33504873132595 6.000000000000034 1.8000000000000023
  endloop
endfacet
facet normal -0.8968727415326881 0.44228869021900163 -2.7477913836210278e-30
  outer loop
    vertex -34.33504873132594 14.000000000000023 2.200000000000003
    vertex -34.79788176114073 13.061467458920742 1.8000000000000023
    vertex -34.79788176114073 13.061467458920742 2.200000000000003
  endloop
endfacet
facet normal -0.8968727415326881 0.44228869021900163 -2.7477913836210278e-30
  outer loop
    vertex -34.79788176114073 13.061467458920742 1.8000000000000023
    vertex -34.33504873132594 14.000000000000023 2.200000000000003
    vertex -34.33504873132594 14.000000000000023 1.8000000000000023
  endloop
endfacet
facet normal -0.8968727415326881 -0.44228869021900163 0.0
  outer loop
    vertex -34.79788176114073 6.938532541079314 2.200000000000003
    vertex -34.33504873132595 6.000000000000034 1.8000000000000023
    vertex -34.33504873132595 6.000000000000034 2.200000000000003
  endloop
endfacet
facet normal -0.8968727415326881 -0.44228869021900163 0.0
  outer loop
    vertex -34.33504873132595 6.000000000000034 1.8000000000000023
    vertex -34.79788176114073 6.938532541079314 2.200000000000003
    vertex -34.79788176114073 6.938532541079314 1.8000000000000023
  endloop
endfacet
facet normal -0.5555702330196034 0.8314696123025445 -6.072069041404156e-17
  outer loop
    vertex -32.2769369331202 16.346826722329897 2.200000000000003
    vertex -31.406845501050434 16.92820323027553 1.8000000000000023
    vertex -32.2769369331202 16.346826722329897 1.8000000000000023
  endloop
endfacet
facet normal -0.5555702330196034 0.8314696123025445 -6.072069041404156e-17
  outer loop
    vertex -31.406845501050434 16.92820323027553 1.8000000000000023
    vertex -32.2769369331202 16.346826722329897 2.200000000000003
    vertex -31.406845501050434 16.92820323027553 2.200000000000003
  endloop
endfacet
facet normal 0.7518398074789767 0.6593458151000696 3.603138787410362e-17
  outer loop
    vertex -21.749991251558054 15.6568542494924 1.8000000000000023
    vertex -21.06001877872055 14.870091432069788 2.200000000000003
    vertex -21.06001877872055 14.870091432069788 1.8000000000000023
  endloop
endfacet
facet normal 0.7518398074789767 0.6593458151000696 3.603138787410362e-17
  outer loop
    vertex -21.06001877872055 14.870091432069788 2.200000000000003
    vertex -21.749991251558054 15.6568542494924 1.8000000000000023
    vertex -21.749991251558054 15.6568542494924 2.200000000000003
  endloop
endfacet
facet normal 0.0 -1.0 0.0
  outer loop
    vertex -26.406845501050448 17.950000000000006 2.200000000000003
    vertex -28.406845501050434 17.950000000000006 1.8000000000000027
    vertex -26.406845501050448 17.950000000000006 1.8000000000000027
  endloop
endfacet
facet normal 0.0 -1.0 0.0
  outer loop
    vertex -28.406845501050434 17.950000000000006 1.8000000000000027
    vertex -26.406845501050448 17.950000000000006 2.200000000000003
    vertex -28.406845501050434 17.950000000000006 2.200000000000003
  endloop
endfacet
facet normal 1.0 0.0 0.0
  outer loop
    vertex -28.406845501050434 17.950000000000006 1.8000000000000027
    vertex -28.406845501050434 15.950000000000005 2.200000000000003
    vertex -28.406845501050434 15.950000000000005 1.8000000000000027
  endloop
endfacet
facet normal 1.0 0.0 0.0
  outer loop
    vertex -28.406845501050434 15.950000000000005 2.200000000000003
    vertex -28.406845501050434 17.950000000000006 1.8000000000000027
    vertex -28.406845501050434 17.950000000000006 2.200000000000003
  endloop
endfacet
facet normal 0.0 1.0 0.0
  outer loop
    vertex -28.406845501050434 15.950000000000005 2.200000000000003
    vertex -26.406845501050448 15.950000000000005 1.8000000000000027
    vertex -28.406845501050434 15.950000000000005 1.8000000000000027
  endloop
endfacet
facet normal 0.0 1.0 0.0
  outer loop
    vertex -26.406845501050448 15.950000000000005 1.8000000000000027
    vertex -28.406845501050434 15.950000000000005 2.200000000000003
    vertex -26.406845501050448 15.950000000000005 2.200000000000003
  endloop
endfacet
facet normal -1.0 0.0 0.0
  outer loop
    vertex -26.406845501050448 17.950000000000006 2.200000000000003
    vertex -26.406845501050448 15.950000000000005 1.8000000000000027
    vertex -26.406845501050448 15.950000000000005 2.200000000000003
  endloop
endfacet
facet normal -1.0 0.0 0.0
  outer loop
    vertex -26.406845501050448 15.950000000000005 1.8000000000000027
    vertex -26.406845501050448 17.950000000000006 2.200000000000003
    vertex -26.406845501050448 17.950000000000006 1.8000000000000027
  endloop
endfacet
facet normal 1.0872499925522205e-20 5.264325160153028e-18 -1.0
  outer loop
    vertex -25.406845501050427 18.950000000000006 1.8000000000000023
    vertex -29.40684550105043 17.741440347427528 1.8000000000000023
    vertex -29.40684550105043 18.950000000000006 1.8000000000000023
  endloop
endfacet
facet normal 1.0872499925522205e-20 5.264325160153028e-18 -1.0
  outer loop
    vertex -29.40684550105043 17.741440347427528 1.8000000000000023
    vertex -25.406845501050427 18.950000000000006 1.8000000000000023
    vertex -28.406845501050434 17.950000000000006 1.8000000000000027
  endloop
endfacet
facet normal 1.0872499925522205e-20 5.264325160153028e-18 -1.0
  outer loop
    vertex -29.40684550105043 17.741440347427528 1.8000000000000023
    vertex -28.406845501050434 17.950000000000006 1.8000000000000027
    vertex -28.451055038810868 2.068441109009543 1.8000000000000023
  endloop
endfacet
facet normal 1.0872499925522205e-20 5.264325160153028e-18 -1.0
  outer loop
    vertex -28.406845501050434 17.950000000000006 1.8000000000000027
    vertex -25.406845501050427 18.950000000000006 1.8000000000000023
    vertex -26.406845501050448 17.950000000000006 1.8000000000000027
  endloop
endfacet
facet normal 1.0872499925522205e-20 5.264325160153028e-18 -1.0
  outer loop
    vertex -26.406845501050448 17.950000000000006 1.8000000000000027
    vertex -25.406845501050427 18.950000000000006 1.8000000000000023
    vertex -26.406845501050448 15.950000000000005 1.8000000000000027
  endloop
endfacet
facet normal 1.0872499925522205e-20 5.264325160153028e-18 -1.0
  outer loop
    vertex -26.406845501050448 15.950000000000005 1.8000000000000027
    vertex -25.406845501050427 18.950000000000006 1.8000000000000023
    vertex -26.362635963290046 2.068441109009536 1.8000000000000023
  endloop
endfacet
facet normal 1.0872499925522205e-20 5.264325160153028e-18 -1.0
  outer loop
    vertex -26.362635963290046 2.068441109009536 1.8000000000000023
    vertex -25.406845501050427 18.950000000000006 1.8000000000000023
    vertex -25.406845501050427 17.741440347427528 1.8000000000000023
  endloop
endfacet
facet normal 1.0872499925522205e-20 5.264325160153028e-18 -1.0
  outer loop
    vertex -26.362635963290046 2.068441109009536 1.8000000000000023
    vertex -25.406845501050427 17.741440347427528 1.8000000000000023
    vertex -25.336293140230293 2.27259338968747 1.8000000000000023
  endloop
endfacet
facet normal 1.0872499925522205e-20 5.264325160153028e-18 -1.0
  outer loop
    vertex -25.336293140230293 2.27259338968747 1.8000000000000023
    vertex -25.406845501050427 17.741440347427528 1.8000000000000023
    vertex -25.336293140230268 17.727406610312563 1.8000000000000023
  endloop
endfacet
facet normal 1.0872499925522205e-20 5.264325160153028e-18 -1.0
  outer loop
    vertex -25.336293140230293 2.27259338968747 1.8000000000000023
    vertex -25.336293140230268 17.727406610312563 1.8000000000000023
    vertex -24.34537804212974 2.608963739909718 1.8000000000000023
  endloop
endfacet
facet normal 1.0872499925522205e-20 5.264325160153028e-18 -1.0
  outer loop
    vertex -24.34537804212974 2.608963739909718 1.8000000000000023
    vertex -25.336293140230268 17.727406610312563 1.8000000000000023
    vertex -24.345378042129717 17.391036260090313 1.8000000000000023
  endloop
endfacet
facet normal 1.0872499925522205e-20 5.264325160153028e-18 -1.0
  outer loop
    vertex -24.34537804212974 2.608963739909718 1.8000000000000023
    vertex -24.345378042129717 17.391036260090313 1.8000000000000023
    vertex -23.40684550105046 3.071796769724499 1.8000000000000023
  endloop
endfacet
facet normal 1.0872499925522205e-20 5.264325160153028e-18 -1.0
  outer loop
    vertex -23.40684550105046 3.071796769724499 1.8000000000000023
    vertex -24.345378042129717 17.391036260090313 1.8000000000000023
    vertex -23.406845501050437 16.92820323027553 1.8000000000000023
  endloop
endfacet
facet normal 1.0872499925522205e-20 5.264325160153028e-18 -1.0
  outer loop
    vertex -23.40684550105046 3.071796769724499 1.8000000000000023
    vertex -23.406845501050437 16.92820323027553 1.8000000000000023
    vertex -22.53675406898069 3.653173277670124 1.8000000000000023
  endloop
endfacet
facet normal 1.0872499925522205e-20 5.264325160153028e-18 -1.0
  outer loop
    vertex -22.53675406898069 3.653173277670124 1.8000000000000023
    vertex -23.406845501050437 16.92820323027553 1.8000000000000023
    vertex -22.536754068980667 16.346826722329897 1.8000000000000023
  endloop
endfacet
facet normal 1.0872499925522205e-20 5.264325160153028e-18 -1.0
  outer loop
    vertex -22.53675406898069 3.653173277670124 1.8000000000000023
    vertex -22.536754068980667 16.346826722329897 1.8000000000000023
    vertex -21.749991251558075 4.343145750507621 1.8000000000000023
  endloop
endfacet
facet normal 1.0872499925522205e-20 5.264325160153028e-18 -1.0
  outer loop
    vertex -21.749991251558075 4.343145750507621 1.8000000000000023
    vertex -22.536754068980667 16.346826722329897 1.8000000000000023
    vertex -21.749991251558054 15.6568542494924 1.8000000000000023
  endloop
endfacet
facet normal 1.0872499925522205e-20 5.264325160153028e-18 -1.0
  outer loop
    vertex -21.749991251558075 4.343145750507621 1.8000000000000023
    vertex -21.749991251558054 15.6568542494924 1.8000000000000023
    vertex -21.060018778720572 5.129908567930232 1.8000000000000023
  endloop
endfacet
facet normal 1.0872499925522205e-20 5.264325160153028e-18 -1.0
  outer loop
    vertex -21.060018778720572 5.129908567930232 1.8000000000000023
    vertex -21.749991251558054 15.6568542494924 1.8000000000000023
    vertex -21.06001877872055 14.870091432069788 1.8000000000000023
  endloop
endfacet
facet normal 1.0872499925522205e-20 5.264325160153028e-18 -1.0
  outer loop
    vertex -21.060018778720572 5.129908567930232 1.8000000000000023
    vertex -21.06001877872055 14.870091432069788 1.8000000000000023
    vertex -20.478642270774944 5.999999999999995 1.8000000000000023
  endloop
endfacet
facet normal 1.0872499925522205e-20 5.264325160153028e-18 -1.0
  outer loop
    vertex -20.478642270774944 5.999999999999995 1.8000000000000023
    vertex -21.06001877872055 14.870091432069788 1.8000000000000023
    vertex -20.478642270774927 14.00000000000002 1.8000000000000023
  endloop
endfacet
facet normal 1.0872499925522205e-20 5.264325160153028e-18 -1.0
  outer loop
    vertex -20.478642270774944 5.999999999999995 1.8000000000000023
    vertex -20.478642270774927 14.00000000000002 1.8000000000000023
    vertex -20.015809240960152 6.9385325410792715 1.8000000000000023
  endloop
endfacet
facet normal 1.0872499925522205e-20 5.264325160153028e-18 -1.0
  outer loop
    vertex -20.015809240960152 6.9385325410792715 1.8000000000000023
    vertex -20.478642270774927 14.00000000000002 1.8000000000000023
    vertex -20.01580924096014 13.06146745892074 1.8000000000000023
  endloop
endfacet
facet normal 1.0872499925522205e-20 5.264325160153028e-18 -1.0
  outer loop
    vertex -20.015809240960152 6.9385325410792715 1.8000000000000023
    vertex -20.01580924096014 13.06146745892074 1.8000000000000023
    vertex -19.679438890737895 7.9294476391798225 1.8000000000000023
  endloop
endfacet
facet normal 1.0872499925522205e-20 5.264325160153028e-18 -1.0
  outer loop
    vertex -19.679438890737895 7.9294476391798225 1.8000000000000023
    vertex -20.01580924096014 13.06146745892074 1.8000000000000023
    vertex -19.67943889073789 12.070552360820187 1.8000000000000023
  endloop
endfacet
facet normal 1.0872499925522205e-20 5.264325160153028e-18 -1.0
  outer loop
    vertex -19.679438890737895 7.9294476391798225 1.8000000000000023
    vertex -19.67943889073789 12.070552360820187 1.8000000000000023
    vertex -19.475286610059957 8.955790462239571 1.8000000000000023
  endloop
endfacet
facet normal 1.0872499925522205e-20 5.264325160153028e-18 -1.0
  outer loop
    vertex -19.475286610059957 8.955790462239571 1.8000000000000023
    vertex -19.67943889073789 12.070552360820187 1.8000000000000023
    vertex -19.475286610059953 11.044209537760434 1.8000000000000023
  endloop
endfacet
facet normal 1.0872499925522205e-20 5.264325160153028e-18 -1.0
  outer loop
    vertex -19.475286610059957 8.955790462239571 1.8000000000000023
    vertex -19.475286610059953 11.044209537760434 1.8000000000000023
    vertex -19.406845501050437 10.000000000000021 1.8000000000000023
  endloop
endfacet
facet normal 1.0872499925522205e-20 5.264325160153028e-18 -1.0
  outer loop
    vertex -28.451055038810868 2.068441109009543 1.8000000000000023
    vertex -28.406845501050434 15.950000000000005 1.8000000000000027
    vertex -27.406845501050455 2.000000000000023 1.8000000000000023
  endloop
endfacet
facet normal 1.0872499925522205e-20 5.264325160153028e-18 -1.0
  outer loop
    vertex -28.406845501050434 15.950000000000005 1.8000000000000027
    vertex -28.451055038810868 2.068441109009543 1.8000000000000023
    vertex -28.406845501050434 17.950000000000006 1.8000000000000027
  endloop
endfacet
facet normal 1.0872499925522205e-20 5.264325160153028e-18 -1.0
  outer loop
    vertex -27.406845501050455 2.000000000000023 1.8000000000000023
    vertex -28.406845501050434 15.950000000000005 1.8000000000000027
    vertex -26.406845501050448 15.950000000000005 1.8000000000000027
  endloop
endfacet
facet normal 1.0872499925522205e-20 5.264325160153028e-18 -1.0
  outer loop
    vertex -27.406845501050455 2.000000000000023 1.8000000000000023
    vertex -26.406845501050448 15.950000000000005 1.8000000000000027
    vertex -26.362635963290046 2.068441109009536 1.8000000000000023
  endloop
endfacet
facet normal 1.0872499925522205e-20 5.264325160153028e-18 -1.0
  outer loop
    vertex -35.338404392040914 11.04420953776044 1.8000000000000023
    vertex -35.338404392040914 8.955790462239616 1.8000000000000023
    vertex -35.406845501050434 10.00000000000003 1.8000000000000023
  endloop
endfacet
facet normal 1.0872499925522205e-20 5.264325160153028e-18 -1.0
  outer loop
    vertex -35.338404392040914 8.955790462239616 1.8000000000000023
    vertex -35.338404392040914 11.04420953776044 1.8000000000000023
    vertex -35.134252111362976 12.070552360820193 1.8000000000000023
  endloop
endfacet
facet normal 1.0872499925522205e-20 5.264325160153028e-18 -1.0
  outer loop
    vertex -35.338404392040914 8.955790462239616 1.8000000000000023
    vertex -35.134252111362976 12.070552360820193 1.8000000000000023
    vertex -35.13425211136298 7.929447639179867 1.8000000000000023
  endloop
endfacet
facet normal 1.0872499925522205e-20 5.264325160153028e-18 -1.0
  outer loop
    vertex -35.13425211136298 7.929447639179867 1.8000000000000023
    vertex -35.134252111362976 12.070552360820193 1.8000000000000023
    vertex -34.79788176114073 6.938532541079314 1.8000000000000023
  endloop
endfacet
facet normal 1.0872499925522205e-20 5.264325160153028e-18 -1.0
  outer loop
    vertex -34.79788176114073 6.938532541079314 1.8000000000000023
    vertex -35.134252111362976 12.070552360820193 1.8000000000000023
    vertex -34.79788176114073 13.061467458920742 1.8000000000000023
  endloop
endfacet
facet normal 1.0872499925522205e-20 5.264325160153028e-18 -1.0
  outer loop
    vertex -34.79788176114073 6.938532541079314 1.8000000000000023
    vertex -34.79788176114073 13.061467458920742 1.8000000000000023
    vertex -34.33504873132595 6.000000000000034 1.8000000000000023
  endloop
endfacet
facet normal 1.0872499925522205e-20 5.264325160153028e-18 -1.0
  outer loop
    vertex -34.33504873132595 6.000000000000034 1.8000000000000023
    vertex -34.79788176114073 13.061467458920742 1.8000000000000023
    vertex -34.33504873132594 14.000000000000023 1.8000000000000023
  endloop
endfacet
facet normal 1.0872499925522205e-20 5.264325160153028e-18 -1.0
  outer loop
    vertex -34.33504873132595 6.000000000000034 1.8000000000000023
    vertex -34.33504873132594 14.000000000000023 1.8000000000000023
    vertex -33.75367222338032 5.129908567930269 1.8000000000000023
  endloop
endfacet
facet normal 1.0872499925522205e-20 5.264325160153028e-18 -1.0
  outer loop
    vertex -33.75367222338032 5.129908567930269 1.8000000000000023
    vertex -34.33504873132594 14.000000000000023 1.8000000000000023
    vertex -33.75367222338031 14.870091432069788 1.8000000000000023
  endloop
endfacet
facet normal 1.0872499925522205e-20 5.264325160153028e-18 -1.0
  outer loop
    vertex -33.75367222338032 5.129908567930269 1.8000000000000023
    vertex -33.75367222338031 14.870091432069788 1.8000000000000023
    vertex -33.063699750542824 4.343145750507654 1.8000000000000023
  endloop
endfacet
facet normal 1.0872499925522205e-20 5.264325160153028e-18 -1.0
  outer loop
    vertex -33.063699750542824 4.343145750507654 1.8000000000000023
    vertex -33.75367222338031 14.870091432069788 1.8000000000000023
    vertex -33.06369975054281 15.6568542494924 1.8000000000000023
  endloop
endfacet
facet normal 1.0872499925522205e-20 5.264325160153028e-18 -1.0
  outer loop
    vertex -33.063699750542824 4.343145750507654 1.8000000000000023
    vertex -33.06369975054281 15.6568542494924 1.8000000000000023
    vertex -32.27693693312021 3.6531732776701507 1.8000000000000023
  endloop
endfacet
facet normal 1.0872499925522205e-20 5.264325160153028e-18 -1.0
  outer loop
    vertex -32.27693693312021 3.6531732776701507 1.8000000000000023
    vertex -33.06369975054281 15.6568542494924 1.8000000000000023
    vertex -32.2769369331202 16.346826722329897 1.8000000000000023
  endloop
endfacet
facet normal 1.0872499925522205e-20 5.264325160153028e-18 -1.0
  outer loop
    vertex -32.27693693312021 3.6531732776701507 1.8000000000000023
    vertex -32.2769369331202 16.346826722329897 1.8000000000000023
    vertex -31.406845501050448 3.071796769724523 1.8000000000000023
  endloop
endfacet
facet normal 1.0872499925522205e-20 5.264325160153028e-18 -1.0
  outer loop
    vertex -31.406845501050448 3.071796769724523 1.8000000000000023
    vertex -32.2769369331202 16.346826722329897 1.8000000000000023
    vertex -31.406845501050434 16.92820323027553 1.8000000000000023
  endloop
endfacet
facet normal 1.0872499925522205e-20 5.264325160153028e-18 -1.0
  outer loop
    vertex -31.406845501050448 3.071796769724523 1.8000000000000023
    vertex -31.406845501050434 16.92820323027553 1.8000000000000023
    vertex -30.468312959971165 2.6089637399097363 1.8000000000000023
  endloop
endfacet
facet normal 1.0872499925522205e-20 5.264325160153028e-18 -1.0
  outer loop
    vertex -30.468312959971165 2.6089637399097363 1.8000000000000023
    vertex -31.406845501050434 16.92820323027553 1.8000000000000023
    vertex -30.468312959971154 17.391036260090313 1.8000000000000023
  endloop
endfacet
facet normal 1.0872499925522205e-20 5.264325160153028e-18 -1.0
  outer loop
    vertex -30.468312959971165 2.6089637399097363 1.8000000000000023
    vertex -30.468312959971154 17.391036260090313 1.8000000000000023
    vertex -29.47739786187062 2.2725933896874815 1.8000000000000023
  endloop
endfacet
facet normal 1.0872499925522205e-20 5.264325160153028e-18 -1.0
  outer loop
    vertex -29.47739786187062 2.2725933896874815 1.8000000000000023
    vertex -30.468312959971154 17.391036260090313 1.8000000000000023
    vertex -29.4773978618706 17.727406610312563 1.8000000000000023
  endloop
endfacet
facet normal 1.0872499925522205e-20 5.264325160153028e-18 -1.0
  outer loop
    vertex -29.47739786187062 2.2725933896874815 1.8000000000000023
    vertex -29.4773978618706 17.727406610312563 1.8000000000000023
    vertex -28.451055038810868 2.068441109009543 1.8000000000000023
  endloop
endfacet
facet normal 1.0872499925522205e-20 5.264325160153028e-18 -1.0
  outer loop
    vertex -28.451055038810868 2.068441109009543 1.8000000000000023
    vertex -29.4773978618706 17.727406610312563 1.8000000000000023
    vertex -29.40684550105043 17.741440347427528 1.8000000000000023
  endloop
endfacet
facet normal 0.0 0.0 1.0
  outer loop
    vertex -27.406845501050455 2.000000000000023 2.200000000000003
    vertex -28.406845501050434 15.950000000000005 2.200000000000003
    vertex -28.451055038810868 2.068441109009543 2.200000000000003
  endloop
endfacet
facet normal 0.0 0.0 1.0
  outer loop
    vertex -28.406845501050434 15.950000000000005 2.200000000000003
    vertex -27.406845501050455 2.000000000000023 2.200000000000003
    vertex -26.406845501050448 15.950000000000005 2.200000000000003
  endloop
endfacet
facet normal 0.0 0.0 1.0
  outer loop
    vertex -26.406845501050448 15.950000000000005 2.200000000000003
    vertex -27.406845501050455 2.000000000000023 2.200000000000003
    vertex -26.362635963290046 2.068441109009536 2.200000000000003
  endloop
endfacet
facet normal 0.0 0.0 1.0
  outer loop
    vertex -26.406845501050448 15.950000000000005 2.200000000000003
    vertex -26.362635963290046 2.068441109009536 2.200000000000003
    vertex -26.406845501050448 17.950000000000006 2.200000000000003
  endloop
endfacet
facet normal 0.0 0.0 1.0
  outer loop
    vertex -25.336293140230293 2.27259338968747 2.200000000000003
    vertex -25.406845501050427 17.741440347427528 2.200000000000003
    vertex -26.362635963290046 2.068441109009536 2.200000000000003
  endloop
endfacet
facet normal 0.0 0.0 1.0
  outer loop
    vertex -25.406845501050427 17.741440347427528 2.200000000000003
    vertex -25.336293140230293 2.27259338968747 2.200000000000003
    vertex -25.336293140230268 17.727406610312563 2.200000000000003
  endloop
endfacet
facet normal 0.0 0.0 1.0
  outer loop
    vertex -25.336293140230268 17.727406610312563 2.200000000000003
    vertex -25.336293140230293 2.27259338968747 2.200000000000003
    vertex -24.34537804212974 2.608963739909718 2.200000000000003
  endloop
endfacet
facet normal 0.0 0.0 1.0
  outer loop
    vertex -25.336293140230268 17.727406610312563 2.200000000000003
    vertex -24.34537804212974 2.608963739909718 2.200000000000003
    vertex -24.345378042129717 17.391036260090313 2.200000000000003
  endloop
endfacet
facet normal 0.0 0.0 1.0
  outer loop
    vertex -24.345378042129717 17.391036260090313 2.200000000000003
    vertex -24.34537804212974 2.608963739909718 2.200000000000003
    vertex -23.40684550105046 3.071796769724499 2.200000000000003
  endloop
endfacet
facet normal 0.0 0.0 1.0
  outer loop
    vertex -24.345378042129717 17.391036260090313 2.200000000000003
    vertex -23.40684550105046 3.071796769724499 2.200000000000003
    vertex -23.406845501050437 16.92820323027553 2.200000000000003
  endloop
endfacet
facet normal 0.0 0.0 1.0
  outer loop
    vertex -23.406845501050437 16.92820323027553 2.200000000000003
    vertex -23.40684550105046 3.071796769724499 2.200000000000003
    vertex -22.53675406898069 3.653173277670124 2.200000000000003
  endloop
endfacet
facet normal 0.0 0.0 1.0
  outer loop
    vertex -23.406845501050437 16.92820323027553 2.200000000000003
    vertex -22.53675406898069 3.653173277670124 2.200000000000003
    vertex -22.536754068980667 16.346826722329897 2.200000000000003
  endloop
endfacet
facet normal 0.0 0.0 1.0
  outer loop
    vertex -22.536754068980667 16.346826722329897 2.200000000000003
    vertex -22.53675406898069 3.653173277670124 2.200000000000003
    vertex -21.749991251558075 4.343145750507621 2.200000000000003
  endloop
endfacet
facet normal 0.0 0.0 1.0
  outer loop
    vertex -22.536754068980667 16.346826722329897 2.200000000000003
    vertex -21.749991251558075 4.343145750507621 2.200000000000003
    vertex -21.749991251558054 15.6568542494924 2.200000000000003
  endloop
endfacet
facet normal 0.0 0.0 1.0
  outer loop
    vertex -21.749991251558054 15.6568542494924 2.200000000000003
    vertex -21.749991251558075 4.343145750507621 2.200000000000003
    vertex -21.060018778720572 5.129908567930232 2.200000000000003
  endloop
endfacet
facet normal 0.0 0.0 1.0
  outer loop
    vertex -21.749991251558054 15.6568542494924 2.200000000000003
    vertex -21.060018778720572 5.129908567930232 2.200000000000003
    vertex -21.06001877872055 14.870091432069788 2.200000000000003
  endloop
endfacet
facet normal 0.0 0.0 1.0
  outer loop
    vertex -21.06001877872055 14.870091432069788 2.200000000000003
    vertex -21.060018778720572 5.129908567930232 2.200000000000003
    vertex -20.478642270774944 5.999999999999995 2.200000000000003
  endloop
endfacet
facet normal 0.0 0.0 1.0
  outer loop
    vertex -21.06001877872055 14.870091432069788 2.200000000000003
    vertex -20.478642270774944 5.999999999999995 2.200000000000003
    vertex -20.478642270774927 14.00000000000002 2.200000000000003
  endloop
endfacet
facet normal 0.0 0.0 1.0
  outer loop
    vertex -20.478642270774927 14.00000000000002 2.200000000000003
    vertex -20.478642270774944 5.999999999999995 2.200000000000003
    vertex -20.015809240960152 6.9385325410792715 2.200000000000003
  endloop
endfacet
facet normal 0.0 0.0 1.0
  outer loop
    vertex -20.478642270774927 14.00000000000002 2.200000000000003
    vertex -20.015809240960152 6.9385325410792715 2.200000000000003
    vertex -20.01580924096014 13.06146745892074 2.200000000000003
  endloop
endfacet
facet normal 0.0 0.0 1.0
  outer loop
    vertex -20.01580924096014 13.06146745892074 2.200000000000003
    vertex -20.015809240960152 6.9385325410792715 2.200000000000003
    vertex -19.679438890737895 7.9294476391798225 2.200000000000003
  endloop
endfacet
facet normal 0.0 0.0 1.0
  outer loop
    vertex -20.01580924096014 13.06146745892074 2.200000000000003
    vertex -19.679438890737895 7.9294476391798225 2.200000000000003
    vertex -19.67943889073789 12.070552360820187 2.200000000000003
  endloop
endfacet
facet normal 0.0 0.0 1.0
  outer loop
    vertex -19.67943889073789 12.070552360820187 2.200000000000003
    vertex -19.679438890737895 7.9294476391798225 2.200000000000003
    vertex -19.475286610059957 8.955790462239571 2.200000000000003
  endloop
endfacet
facet normal 0.0 0.0 1.0
  outer loop
    vertex -19.67943889073789 12.070552360820187 2.200000000000003
    vertex -19.475286610059957 8.955790462239571 2.200000000000003
    vertex -19.475286610059953 11.044209537760434 2.200000000000003
  endloop
endfacet
facet normal 0.0 0.0 1.0
  outer loop
    vertex -19.475286610059953 11.044209537760434 2.200000000000003
    vertex -19.475286610059957 8.955790462239571 2.200000000000003
    vertex -19.406845501050437 10.000000000000021 2.200000000000003
  endloop
endfacet
facet normal 0.0 0.0 1.0
  outer loop
    vertex -35.338404392040914 8.955790462239616 2.200000000000003
    vertex -35.338404392040914 11.04420953776044 2.200000000000003
    vertex -35.406845501050434 10.00000000000003 2.200000000000003
  endloop
endfacet
facet normal 0.0 0.0 1.0
  outer loop
    vertex -35.338404392040914 11.04420953776044 2.200000000000003
    vertex -35.338404392040914 8.955790462239616 2.200000000000003
    vertex -35.13425211136298 7.929447639179867 2.200000000000003
  endloop
endfacet
facet normal 0.0 0.0 1.0
  outer loop
    vertex -35.338404392040914 11.04420953776044 2.200000000000003
    vertex -35.13425211136298 7.929447639179867 2.200000000000003
    vertex -35.134252111362976 12.070552360820193 2.200000000000003
  endloop
endfacet
facet normal 0.0 0.0 1.0
  outer loop
    vertex -35.134252111362976 12.070552360820193 2.200000000000003
    vertex -35.13425211136298 7.929447639179867 2.200000000000003
    vertex -34.79788176114073 6.938532541079314 2.200000000000003
  endloop
endfacet
facet normal 0.0 0.0 1.0
  outer loop
    vertex -35.134252111362976 12.070552360820193 2.200000000000003
    vertex -34.79788176114073 6.938532541079314 2.200000000000003
    vertex -34.79788176114073 13.061467458920742 2.200000000000003
  endloop
endfacet
facet normal 0.0 0.0 1.0
  outer loop
    vertex -34.79788176114073 13.061467458920742 2.200000000000003
    vertex -34.79788176114073 6.938532541079314 2.200000000000003
    vertex -34.33504873132595 6.000000000000034 2.200000000000003
  endloop
endfacet
facet normal 0.0 0.0 1.0
  outer loop
    vertex -34.79788176114073 13.061467458920742 2.200000000000003
    vertex -34.33504873132595 6.000000000000034 2.200000000000003
    vertex -34.33504873132594 14.000000000000023 2.200000000000003
  endloop
endfacet
facet normal 0.0 0.0 1.0
  outer loop
    vertex -34.33504873132594 14.000000000000023 2.200000000000003
    vertex -34.33504873132595 6.000000000000034 2.200000000000003
    vertex -33.75367222338032 5.129908567930269 2.200000000000003
  endloop
endfacet
facet normal 0.0 0.0 1.0
  outer loop
    vertex -34.33504873132594 14.000000000000023 2.200000000000003
    vertex -33.75367222338032 5.129908567930269 2.200000000000003
    vertex -33.75367222338031 14.870091432069788 2.200000000000003
  endloop
endfacet
facet normal 0.0 0.0 1.0
  outer loop
    vertex -33.75367222338031 14.870091432069788 2.200000000000003
    vertex -33.75367222338032 5.129908567930269 2.200000000000003
    vertex -33.063699750542824 4.343145750507654 2.200000000000003
  endloop
endfacet
facet normal 0.0 0.0 1.0
  outer loop
    vertex -33.75367222338031 14.870091432069788 2.200000000000003
    vertex -33.063699750542824 4.343145750507654 2.200000000000003
    vertex -33.06369975054281 15.6568542494924 2.200000000000003
  endloop
endfacet
facet normal 0.0 0.0 1.0
  outer loop
    vertex -33.06369975054281 15.6568542494924 2.200000000000003
    vertex -33.063699750542824 4.343145750507654 2.200000000000003
    vertex -32.27693693312021 3.6531732776701507 2.200000000000003
  endloop
endfacet
facet normal 0.0 0.0 1.0
  outer loop
    vertex -33.06369975054281 15.6568542494924 2.200000000000003
    vertex -32.27693693312021 3.6531732776701507 2.200000000000003
    vertex -32.2769369331202 16.346826722329897 2.200000000000003
  endloop
endfacet
facet normal 0.0 0.0 1.0
  outer loop
    vertex -32.2769369331202 16.346826722329897 2.200000000000003
    vertex -32.27693693312021 3.6531732776701507 2.200000000000003
    vertex -31.406845501050448 3.071796769724523 2.200000000000003
  endloop
endfacet
facet normal 0.0 0.0 1.0
  outer loop
    vertex -32.2769369331202 16.346826722329897 2.200000000000003
    vertex -31.406845501050448 3.071796769724523 2.200000000000003
    vertex -31.406845501050434 16.92820323027553 2.200000000000003
  endloop
endfacet
facet normal 0.0 0.0 1.0
  outer loop
    vertex -31.406845501050434 16.92820323027553 2.200000000000003
    vertex -31.406845501050448 3.071796769724523 2.200000000000003
    vertex -30.468312959971165 2.6089637399097363 2.200000000000003
  endloop
endfacet
facet normal 0.0 0.0 1.0
  outer loop
    vertex -31.406845501050434 16.92820323027553 2.200000000000003
    vertex -30.468312959971165 2.6089637399097363 2.200000000000003
    vertex -30.468312959971154 17.391036260090313 2.200000000000003
  endloop
endfacet
facet normal 0.0 0.0 1.0
  outer loop
    vertex -30.468312959971154 17.391036260090313 2.200000000000003
    vertex -30.468312959971165 2.6089637399097363 2.200000000000003
    vertex -29.47739786187062 2.2725933896874815 2.200000000000003
  endloop
endfacet
facet normal 0.0 0.0 1.0
  outer loop
    vertex -30.468312959971154 17.391036260090313 2.200000000000003
    vertex -29.47739786187062 2.2725933896874815 2.200000000000003
    vertex -29.4773978618706 17.727406610312563 2.200000000000003
  endloop
endfacet
facet normal 0.0 0.0 1.0
  outer loop
    vertex -29.4773978618706 17.727406610312563 2.200000000000003
    vertex -29.47739786187062 2.2725933896874815 2.200000000000003
    vertex -28.451055038810868 2.068441109009543 2.200000000000003
  endloop
endfacet
facet normal 0.0 0.0 1.0
  outer loop
    vertex -29.4773978618706 17.727406610312563 2.200000000000003
    vertex -28.451055038810868 2.068441109009543 2.200000000000003
    vertex -29.40684550105043 17.741440347427528 2.200000000000003
  endloop
endfacet
facet normal 0.0 0.0 1.0
  outer loop
    vertex -29.40684550105043 17.741440347427528 2.200000000000003
    vertex -28.451055038810868 2.068441109009543 2.200000000000003
    vertex -29.40684550105043 18.950000000000006 2.200000000000003
  endloop
endfacet
facet normal 0.0 0.0 1.0
  outer loop
    vertex -29.40684550105043 18.950000000000006 2.200000000000003
    vertex -28.451055038810868 2.068441109009543 2.200000000000003
    vertex -28.406845501050434 17.950000000000006 2.200000000000003
  endloop
endfacet
facet normal 0.0 0.0 1.0
  outer loop
    vertex -29.40684550105043 18.950000000000006 2.200000000000003
    vertex -28.406845501050434 17.950000000000006 2.200000000000003
    vertex -25.406845501050427 18.950000000000006 2.200000000000003
  endloop
endfacet
facet normal 0.0 0.0 1.0
  outer loop
    vertex -28.406845501050434 17.950000000000006 2.200000000000003
    vertex -28.451055038810868 2.068441109009543 2.200000000000003
    vertex -28.406845501050434 15.950000000000005 2.200000000000003
  endloop
endfacet
facet normal 0.0 0.0 1.0
  outer loop
    vertex -25.406845501050427 18.950000000000006 2.200000000000003
    vertex -28.406845501050434 17.950000000000006 2.200000000000003
    vertex -26.406845501050448 17.950000000000006 2.200000000000003
  endloop
endfacet
facet normal 0.0 0.0 1.0
  outer loop
    vertex -25.406845501050427 18.950000000000006 2.200000000000003
    vertex -26.406845501050448 17.950000000000006 2.200000000000003
    vertex -26.362635963290046 2.068441109009536 2.200000000000003
  endloop
endfacet
facet normal 0.0 0.0 1.0
  outer loop
    vertex -25.406845501050427 18.950000000000006 2.200000000000003
    vertex -26.362635963290046 2.068441109009536 2.200000000000003
    vertex -25.406845501050427 17.741440347427528 2.200000000000003
  endloop
endfacet
facet normal 0.1950903220161498 0.9807852804032263 0.0
  outer loop
    vertex -25.406845501050427 17.741440347427528 2.200000000000003
    vertex -25.336293140230268 17.727406610312563 1.8000000000000023
    vertex -25.406845501050427 17.741440347427528 1.8000000000000023
  endloop
endfacet
facet normal 0.1950903220161498 0.9807852804032263 0.0
  outer loop
    vertex -25.336293140230268 17.727406610312563 1.8000000000000023
    vertex -25.406845501050427 17.741440347427528 2.200000000000003
    vertex -25.336293140230268 17.727406610312563 2.200000000000003
  endloop
endfacet
facet normal -0.1950903220161197 0.9807852804032321 2.4240615585187527e-30
  outer loop
    vertex -29.4773978618706 17.727406610312563 2.200000000000003
    vertex -29.40684550105043 17.741440347427528 1.8000000000000023
    vertex -29.4773978618706 17.727406610312563 1.8000000000000023
  endloop
endfacet
facet normal -0.1950903220161197 0.9807852804032321 2.4240615585187527e-30
  outer loop
    vertex -29.40684550105043 17.741440347427528 1.8000000000000023
    vertex -29.4773978618706 17.727406610312563 2.200000000000003
    vertex -29.40684550105043 17.741440347427528 2.200000000000003
  endloop
endfacet
facet normal 1.0 0.0 0.0
  outer loop
    vertex -25.406845501050427 18.950000000000006 1.8000000000000023
    vertex -25.406845501050427 17.741440347427528 2.200000000000003
    vertex -25.406845501050427 17.741440347427528 1.8000000000000023
  endloop
endfacet
facet normal 1.0 0.0 0.0
  outer loop
    vertex -25.406845501050427 17.741440347427528 2.200000000000003
    vertex -25.406845501050427 18.950000000000006 1.8000000000000023
    vertex -25.406845501050427 18.950000000000006 2.200000000000003
  endloop
endfacet
facet normal 0.0 1.0 0.0
  outer loop
    vertex -29.40684550105043 18.950000000000006 2.200000000000003
    vertex -25.406845501050427 18.950000000000006 1.8000000000000023
    vertex -29.40684550105043 18.950000000000006 1.8000000000000023
  endloop
endfacet
facet normal 0.0 1.0 0.0
  outer loop
    vertex -25.406845501050427 18.950000000000006 1.8000000000000023
    vertex -29.40684550105043 18.950000000000006 2.200000000000003
    vertex -25.406845501050427 18.950000000000006 2.200000000000003
  endloop
endfacet
facet normal -1.0 0.0 0.0
  outer loop
    vertex -29.40684550105043 18.950000000000006 2.200000000000003
    vertex -29.40684550105043 17.741440347427528 1.8000000000000023
    vertex -29.40684550105043 17.741440347427528 2.200000000000003
  endloop
endfacet
facet normal -1.0 0.0 0.0
  outer loop
    vertex -29.40684550105043 17.741440347427528 1.8000000000000023
    vertex -29.40684550105043 18.950000000000006 2.200000000000003
    vertex -29.40684550105043 18.950000000000006 1.8000000000000023
  endloop
endfacet
endsolid c
